<mxfile host="app.diagrams.net" agent="Mozilla/5.0 (Windows NT 10.0; Win64; x64) AppleWebKit/537.36 (KHTML, like Gecko) Chrome/142.0.0.0 Safari/537.36" version="28.2.8">
  <diagram name="Page-1" id="wSyz8cm-BqYSM8CTw_-i">
    <mxGraphModel dx="970" dy="554" grid="1" gridSize="10" guides="1" tooltips="1" connect="1" arrows="1" fold="1" page="1" pageScale="1" pageWidth="850" pageHeight="1100" math="0" shadow="0">
      <root>
        <mxCell id="0" />
        <mxCell id="1" parent="0" />
        <mxCell id="Dus_v-go7ATCjnA9UxoP-1" value="Start" style="ellipse;whiteSpace=wrap;html=1;" vertex="1" parent="1">
          <mxGeometry x="360" y="50" width="120" height="80" as="geometry" />
        </mxCell>
        <mxCell id="Dus_v-go7ATCjnA9UxoP-2" value="User Enters Input in Plain English" style="rounded=0;whiteSpace=wrap;html=1;" vertex="1" parent="1">
          <mxGeometry x="360" y="160" width="120" height="60" as="geometry" />
        </mxCell>
        <mxCell id="Dus_v-go7ATCjnA9UxoP-3" value="&lt;div&gt;NLP Processing &amp;amp;&lt;span style=&quot;background-color: transparent; color: light-dark(rgb(0, 0, 0), rgb(255, 255, 255));&quot;&gt;&amp;nbsp;Intent Detection&amp;nbsp;&lt;/span&gt;&lt;/div&gt;" style="rounded=0;whiteSpace=wrap;html=1;" vertex="1" parent="1">
          <mxGeometry x="360" y="260" width="120" height="60" as="geometry" />
        </mxCell>
        <mxCell id="Dus_v-go7ATCjnA9UxoP-4" value="Determine Operation&lt;div&gt;(Read / Write / Commit)&lt;/div&gt;" style="rounded=0;whiteSpace=wrap;html=1;" vertex="1" parent="1">
          <mxGeometry x="350" y="360" width="140" height="60" as="geometry" />
        </mxCell>
        <mxCell id="Dus_v-go7ATCjnA9UxoP-5" value="Generate SQL Query&amp;nbsp;&lt;div&gt;from Natural Language&lt;/div&gt;" style="rounded=0;whiteSpace=wrap;html=1;" vertex="1" parent="1">
          <mxGeometry x="350" y="460" width="150" height="60" as="geometry" />
        </mxCell>
        <mxCell id="Dus_v-go7ATCjnA9UxoP-6" value="Execute Appropriate&amp;nbsp;Tool (read_data /&amp;nbsp;write_data / commit)" style="rounded=0;whiteSpace=wrap;html=1;" vertex="1" parent="1">
          <mxGeometry x="333" y="550" width="185" height="70" as="geometry" />
        </mxCell>
        <mxCell id="Dus_v-go7ATCjnA9UxoP-7" value="Database&amp;nbsp;Interaction&amp;nbsp;" style="rounded=0;whiteSpace=wrap;html=1;" vertex="1" parent="1">
          <mxGeometry x="360" y="650" width="135" height="70" as="geometry" />
        </mxCell>
        <mxCell id="Dus_v-go7ATCjnA9UxoP-8" value="Format &amp;amp; Return&amp;nbsp;&lt;div&gt;&lt;span style=&quot;background-color: transparent; color: light-dark(rgb(0, 0, 0), rgb(255, 255, 255));&quot;&gt;Results to User&lt;/span&gt;&lt;/div&gt;" style="rounded=0;whiteSpace=wrap;html=1;" vertex="1" parent="1">
          <mxGeometry x="350" y="750" width="140" height="70" as="geometry" />
        </mxCell>
        <mxCell id="Dus_v-go7ATCjnA9UxoP-9" value="End" style="ellipse;whiteSpace=wrap;html=1;" vertex="1" parent="1">
          <mxGeometry x="360" y="850" width="120" height="80" as="geometry" />
        </mxCell>
      </root>
    </mxGraphModel>
  </diagram>
</mxfile>
